:FULLY-SPECIFIED
:DEGREES
1141
root 3.73427 16.4975 -3.23698 247.923 -93.8663 -241.293
lowerback -0.0609402 0.295274 2.8452
upperback -0.118498 0.374225 1.80987
thorax -0.0806972 0.176691 0.259022
lowerneck -18.736 -0.715872 -1.5726
upperneck 19.4157 -1.38643 3.25796
head 9.23916 -0.432978 1.19187
rclavicle -1.59028e-015 1.39149e-015
rhumerus -32.6609 -4.14757 -82.1903
rradius 21.0806
rwrist 29.9964
rhand -25.2112 2.25038
rfingers 7.12502
rthumb 1.3076 -27.7254
lclavicle -1.59028e-015 1.39149e-015
lhumerus -30.0561 8.83334 86.8615
lradius 17.6197
lwrist -20.1159
lhand -24.3213 1.99355
lfingers 7.12502
lthumb 2.16707 31.9623
rfemur -14.6516 9.80196 27.8531
rtibia 16.966
rfoot -8.06921 -13.194
rtoes -0.889292
lfemur -16.1674 -2.9249 -17.9874
ltibia 59.7724
lfoot -1.90554 -5.36849
ltoes -21.3016
1142
root 3.75379 16.4861 -3.24982 247.083 -94.2629 -240.685
lowerback 0.320471 0.293258 3.11828
upperback -0.0520423 0.384626 1.91208
thorax -0.225132 0.179427 0.209278
lowerneck -18.6716 -0.750694 -1.58684
upperneck 19.2603 -1.43072 3.28727
head 9.17516 -0.451886 1.1975
rclavicle -1.59028e-015 5.96354e-016
rhumerus -32.4325 -3.85935 -82.227
rradius 21.2214
rwrist 29.7099
rhand -25.4674 2.12975
rfingers 7.12502
rthumb 1.06013 -27.8474
lclavicle -1.59028e-015 5.96354e-016
lhumerus -30.066 8.57139 87.0515
lradius 17.8185
lwrist -19.6073
lhand -24.607 1.96339
lfingers 7.12502
lthumb 1.89108 31.9348
rfemur -13.8083 9.64696 28.397
rtibia 16.5791
rfoot -8.29506 -13.2725
rtoes -1.16949
lfemur -17.5134 -2.75478 -17.5413
ltibia 61.9013
lfoot -2.81251 -3.84339
ltoes -20.9076
1143
root 3.77282 16.4772 -3.26069 245.964 -94.5024 -239.788
lowerback 0.625931 0.303116 3.23621
upperback 0.0632338 0.407634 1.96731
thorax -0.277349 0.190373 0.198524
lowerneck -18.662 -0.77768 -1.57607
upperneck 19.1041 -1.46668 3.30201
head 9.12042 -0.465958 1.19519
rclavicle -2.78299e-015 -8.54774e-015
rhumerus -32.0975 -3.81484 -82.153
rradius 21.2631
rwrist 29.8804
rhand -25.6819 2.02493
rfingers 7.12502
rthumb 0.852982 -27.9531
lclavicle -2.78299e-015 -8.54774e-015
lhumerus -29.9876 8.36894 87.2134
lradius 17.9753
lwrist -19.3068
lhand -24.9247 1.82448
lfingers 7.12502
lthumb 1.58434 31.7983
rfemur -13.0808 9.6357 28.7534
rtibia 16.368
rfoot -8.56128 -13.4763
rtoes -1.47796
lfemur -18.8385 -2.56198 -17.314
ltibia 63.7562
lfoot -3.64078 -2.18001
ltoes -20.3925
1144
root 3.79315 16.4682 -3.27504 245.566 -94.7519 -239.628
lowerback 0.982522 0.324382 3.31778
upperback 0.161438 0.449011 2.0449
thorax -0.375721 0.209671 0.230334
lowerneck -18.6445 -0.801232 -1.56714
upperneck 18.9898 -1.50183 3.32582
head 9.07895 -0.479082 1.19664
rclavicle -4.37326e-015 0
rhumerus -31.7514 -3.67028 -82.1145
rradius 21.2429
rwrist 29.6662
rhand -25.9719 2.08736
rfingers 7.12502
rthumb 0.5729 -27.8916
lclavicle -4.37326e-015 0
lhumerus -29.9069 8.1005 87.4175
lradius 18.0813
lwrist -18.9779
lhand -25.37 1.8052
lfingers 7.12502
lthumb 1.15421 31.7818
rfemur -12.3949 9.71452 29.1778
rtibia 16.3165
rfoot -8.90523 -13.8176
rtoes -1.44367
lfemur -20.1388 -2.32912 -17.0525
ltibia 65.344
lfoot -4.14833 -0.710707
ltoes -19.2279
1145
root 3.81212 16.4607 -3.28772 243.54 -94.8278 -237.812
lowerback 1.2618 0.334563 3.1985
upperback 0.272299 0.471016 2.04423
thorax -0.419178 0.221121 0.294637
lowerneck -18.6408 -0.838708 -1.55246
upperneck 18.8952 -1.56661 3.38361
head 9.04794 -0.501869 1.205
rclavicle 9.14409e-015 1.37161e-014
rhumerus -31.3892 -3.99213 -81.8946
rradius 21.2128
rwrist 30.2902
rhand -26.0315 2.07627
rfingers 7.12502
rthumb 0.515338 -27.9029
lclavicle 9.14409e-015 1.37161e-014
lhumerus -29.7897 7.78336 87.6032
lradius 18.1906
lwrist -18.7102
lhand -25.5592 1.86357
lfingers 7.12502
lthumb 0.971454 31.8411
rfemur -11.8087 9.86069 29.3412
rtibia 16.3881
rfoot -9.30976 -14.2522
rtoes -1.62821
lfemur -21.3988 -2.22549 -17.0674
ltibia 66.6236
lfoot -4.55121 0.666587
ltoes -18.4923
1146
root 3.83203 16.4536 -3.29971 241.983 -94.8502 -236.401
lowerback 1.48584 0.350766 3.01447
upperback 0.354647 0.497969 2.0507
thorax -0.461544 0.234934 0.402519
lowerneck -18.6197 -0.862771 -1.57109
upperneck 18.8336 -1.60919 3.4587
head 9.025 -0.515142 1.2279
rclavicle 2.78299e-015 -1.39149e-015
rhumerus -31.0356 -4.14432 -81.7414
rradius 21.196
rwrist 30.4216
rhand -26.154 2.03273
rfingers 7.12502
rthumb 0.396959 -27.9466
lclavicle 2.78299e-015 -1.39149e-015
lhumerus -29.7199 7.76387 87.6927
lradius 18.3372
lwrist -18.5439
lhand -25.6827 1.81344
lfingers 7.12502
lthumb 0.852211 31.7915
rfemur -11.3351 10 29.4799
rtibia 16.572
rfoot -9.6958 -14.6892
rtoes -1.86271
lfemur -22.6743 -2.10935 -17.1309
ltibia 67.6205
lfoot -4.88015 1.87137
ltoes -17.0306
1147
root 3.85078 16.4455 -3.31399 240.607 -94.842 -235.09
lowerback 1.63858 0.368601 2.76916
upperback 0.397404 0.52396 2.04983
thorax -0.505226 0.248295 0.537385
lowerneck -18.6211 -0.886 -1.6126
upperneck 18.8406 -1.65426 3.56439
head 9.03036 -0.527668 1.26513
rclavicle -4.77083e-015 -6.16232e-015
rhumerus -30.6928 -4.27838 -81.6346
rradius 21.1684
rwrist 30.5415
rhand -26.1588 1.93668
rfingers 7.12502
rthumb 0.392394 -28.0427
lclavicle -4.77083e-015 -6.16232e-015
lhumerus -29.644 7.57699 87.828
lradius 18.4601
lwrist -18.2881
lhand -25.7868 1.86827
lfingers 7.12502
lthumb 0.75165 31.8467
rfemur -11.0043 10.3202 29.5754
rtibia 16.8612
rfoot -10.2029 -15.2306
rtoes -2.05982
lfemur -23.9747 -1.98012 -17.2212
ltibia 68.3427
lfoot -5.44094 2.83386
ltoes -16.9429
1148
root 3.86781 16.4386 -3.3252 238.748 -94.846 -233.263
lowerback 1.68001 0.395024 2.60277
upperback 0.465076 0.556818 1.99853
thorax -0.459879 0.266095 0.577144
lowerneck -18.6371 -0.934922 -1.63098
upperneck 18.8411 -1.74442 3.68456
head 9.0376 -0.557859 1.29753
rclavicle -7.95139e-016 -2.82274e-014
rhumerus -30.3347 -4.45109 -81.5858
rradius 21.1365
rwrist 30.459
rhand -26.3872 1.91521
rfingers 7.12502
rthumb 0.171775 -28.0645
lclavicle -7.95139e-016 -2.82274e-014
lhumerus -29.5091 7.33428 87.9285
lradius 18.5596
lwrist -18.1663
lhand -25.8057 1.92146
lfingers 7.12502
lthumb 0.733364 31.8999
rfemur -10.7102 10.5182 29.6487
rtibia 17.228
rfoot -10.7614 -15.6919
rtoes -2.10295
lfemur -25.2287 -1.97168 -17.3454
ltibia 68.7996
lfoot -6.20043 3.70119
ltoes -16.4719
1149
root 3.88716 16.4276 -3.336 237.349 -94.8392 -231.81
lowerback 1.72592 0.437497 2.44249
upperback 0.44625 0.614535 1.93547
thorax -0.505461 0.29536 0.600528
lowerneck -18.6033 -0.991033 -1.62803
upperneck 18.9059 -1.85119 3.7862
head 9.05831 -0.597113 1.31818
rclavicle -7.95139e-015 -2.15681e-014
rhumerus -30.0802 -4.80067 -81.484
rradius 21.1386
rwrist 30.6982
rhand -26.4725 1.87949
rfingers 7.12502
rthumb 0.0893661 -28.1002
lclavicle -7.95139e-015 -2.15681e-014
lhumerus -29.4641 7.00996 88.0246
lradius 18.6911
lwrist -17.9036
lhand -25.8587 1.80757
lfingers 7.12502
lthumb 0.68222 31.7862
rfemur -10.5671 10.7194 29.711
rtibia 17.6179
rfoot -11.2853 -16.1217
rtoes -2.35189
lfemur -26.5445 -1.97813 -17.4587
ltibia 69.0043
lfoot -7.19033 4.27309
ltoes -16.3188
1150
root 3.90256 16.4195 -3.34545 235.977 -94.7875 -230.404
lowerback 1.72281 0.488565 2.28346
upperback 0.45456 0.680996 1.83905
thorax -0.495476 0.329716 0.589342
lowerneck -18.5643 -1.04213 -1.59896
upperneck 18.9693 -1.95525 3.87244
head 9.07728 -0.634965 1.32957
rclavicle 7.95139e-016 -1.26228e-014
rhumerus -29.8105 -5.03665 -81.4821
rradius 21.1587
rwrist 30.6489
rhand -26.4473 1.77362
rfingers 7.12502
rthumb 0.113751 -28.2061
lclavicle 7.95139e-016 -1.26228e-014
lhumerus -29.4168 6.65699 88.0818
lradius 18.8477
lwrist -17.7092
lhand -25.7678 1.70762
lfingers 7.12502
lthumb 0.770016 31.686
rfemur -10.409 10.8662 29.7375
rtibia 18.0537
rfoot -11.8279 -16.4878
rtoes -2.52173
lfemur -27.7311 -2.02702 -17.6174
ltibia 68.9341
lfoot -8.18598 4.57291
ltoes -15.6326
1151
root 3.91798 16.41 -3.35448 234.425 -94.7352 -228.848
lowerback 1.7453 0.520763 2.11507
upperback 0.49977 0.72163 1.75296
thorax -0.462545 0.351229 0.594536
lowerneck -18.6219 -1.07745 -1.59439
upperneck 19.0542 -2.02799 3.95146
head 9.12031 -0.659034 1.34681
rclavicle 1.51076e-014 2.127e-014
rhumerus -29.4844 -5.31682 -81.4611
rradius 21.1904
rwrist 30.77
rhand -26.4603 1.70635
rfingers 7.12502
rthumb 0.101217 -28.2734
lclavicle 1.51076e-014 2.127e-014
lhumerus -29.3159 6.18007 88.2024
lradius 19.0448
lwrist -17.3034
lhand -25.5428 1.72224
lfingers 7.12502
lthumb 0.987279 31.6997
rfemur -10.2425 10.9695 29.7627
rtibia 18.5291
rfoot -12.3889 -16.8212
rtoes -2.66596
lfemur -28.8427 -2.10899 -17.7789
ltibia 68.5851
lfoot -9.17511 4.54059
ltoes -15.6224
1152
root 3.93247 16.3945 -3.36205 233.515 -94.6749 -227.906
lowerback 1.75485 0.563358 1.98755
upperback 0.515467 0.777143 1.66829
thorax -0.452116 0.379821 0.577983
lowerneck -18.6759 -1.11463 -1.61538
upperneck 19.1844 -2.10193 4.04344
head 9.17894 -0.684027 1.37286
rclavicle 1.03368e-014 1.19271e-014
rhumerus -29.2116 -5.49226 -81.4786
rradius 21.2199
rwrist 30.7304
rhand -26.5316 1.70855
rfingers 7.12502
rthumb 0.0322966 -28.2712
lclavicle 1.03368e-014 1.19271e-014
lhumerus -29.2442 5.79559 88.2699
lradius 19.2248
lwrist -17.0404
lhand -25.3513 1.78604
lfingers 7.12502
lthumb 1.17223 31.7626
rfemur -10.0902 11.1533 29.7958
rtibia 18.9796
rfoot -13.0289 -17.1224
rtoes -2.67054
lfemur -29.9295 -2.12624 -17.9265
ltibia 68.008
lfoot -9.96632 4.37638
ltoes -16.4417
1153
root 3.94847 16.3798 -3.36889 232.542 -94.6546 -226.925
lowerback 1.85143 0.595291 1.90321
upperback 0.499463 0.82255 1.58624
thorax -0.522435 0.40268 0.538992
lowerneck -18.6821 -1.14114 -1.61142
upperneck 19.3195 -2.16211 4.1024
head 9.22968 -0.705108 1.38527
rclavicle 1.59028e-015 -2.65874e-014
rhumerus -29.0154 -5.43112 -81.6122
rradius 21.3395
rwrist 30.441
rhand -26.6179 1.64088
rfingers 7.12502
rthumb -0.0510197 -28.3389
lclavicle 1.59028e-015 -2.65874e-014
lhumerus -29.2527 5.40343 88.3286
lradius 19.4523
lwrist -16.6461
lhand -25.2069 1.76845
lfingers 7.12502
lthumb 1.31177 31.7442
rfemur -9.91417 11.1616 29.8799
rtibia 19.4144
rfoot -13.318 -17.3345
rtoes -3.27076
lfemur -30.9413 -2.21807 -18
ltibia 67.1634
lfoot -10.6526 3.83627
ltoes -16.6189
1154
root 3.96268 16.3662 -3.37474 231.26 -94.6204 -225.644
lowerback 1.92465 0.618866 1.80029
upperback 0.503849 0.854866 1.50159
thorax -0.559069 0.41927 0.508333
lowerneck -18.6822 -1.14445 -1.59889
upperneck 19.4129 -2.1877 4.15039
head 9.26357 -0.710715 1.39687
rclavicle -2.3059e-014 -8.67198e-015
rhumerus -28.8124 -5.4462 -81.6968
rradius 21.4637
rwrist 30.3276
rhand -26.5509 1.72421
rfingers 7.12502
rthumb 0.0136884 -28.2555
lclavicle -2.3059e-014 -8.67198e-015
lhumerus -29.2743 5.10395 88.359
lradius 19.7319
lwrist -16.4062
lhand -25.0339 1.78824
lfingers 7.12502
lthumb 1.4788 31.7629
rfemur -9.70668 11.2 29.922
rtibia 19.7893
rfoot -13.8058 -17.6481
rtoes -3.33542
lfemur -31.816 -2.40115 -18.1233
ltibia 66.0628
lfoot -11.3367 3.3362
ltoes -17.2011
